<svg xmlns="http://www.w3.org/2000/svg" viewBox="0 0 512 512" width="100%" height="100%">
  <defs>
    <!-- Warm Gold-Amber Metallic Gradient (Taylor Swift TS Inspired Aesthetic) -->
    <linearGradient id="tsGold" x1="0%" y1="0%" x2="100%" y2="100%">
      <stop offset="0%" stop-color="#fff1c1"/>
      <stop offset="35%" stop-color="#e2ba49"/>
      <stop offset="70%" stop-color="#b8871b"/>
      <stop offset="100%" stop-color="#805603"/>
    </linearGradient>

    <filter id="subtleGlow" x="-20%" y="-20%" width="140%" height="140%">
      <feGaussianBlur stdDeviation="4" result="blur"/>
      <feComposite in="SourceGraphic" in2="blur" operator="over"/>
    </filter>
  </defs>

  <g>
    <!-- Stylized Serif Monogram 'C.' inspired by Taylor Swift's iconic T.S. lettermark -->
    <text x="220" y="380" font-family="'Cormorant Garamond', 'Cinzel', 'Times New Roman', serif" font-size="390" font-weight="700" font-style="italic" fill="url(#tsGold)" text-anchor="middle" filter="url(#subtleGlow)">
      C<tspan font-style="normal" font-size="280" fill="url(#tsGold)">.</tspan>
    </text>

    <!-- Sparkle Stars at the base (Inspired by Taylor Swift T.S. signature stars) -->
    <!-- Left Star Accent -->
    <path d="M 115 425 Q 115 410 130 410 Q 115 410 115 395 Q 115 410 100 410 Q 115 410 115 425 Z" fill="url(#tsGold)" />
    <!-- Right Main Star Accent -->
    <path d="M 390 435 Q 390 417 408 417 Q 390 417 390 399 Q 390 417 372 417 Q 390 417 390 435 Z" fill="url(#tsGold)" />
    <!-- Small Top-Right Star Accent -->
    <path d="M 435 385 Q 435 373 447 373 Q 435 373 435 361 Q 435 373 423 373 Q 435 373 435 385 Z" fill="url(#tsGold)" opacity="0.85" />
  </g>
</svg>
